<svg id="SvgjsSvg1001" width="288" height="288" xmlns="http://www.w3.org/2000/svg" version="1.1" xmlns:xlink="http://www.w3.org/1999/xlink" xmlns:svgjs="http://svgjs.com/svgjs"><defs id="SvgjsDefs1002"></defs><g id="SvgjsG1008"><svg xmlns="http://www.w3.org/2000/svg" class="svg-icon" style="width:1em;height:1em;vertical-align:middle" fill="currentColor" overflow="hidden" viewBox="0 0 1024 1024" width="288" height="288"><path d="M512 16C238.064 16 16 238.08 16 512c0 273.936 222.064 496 496 496 273.952 0 496-222.048 496-496C1008 238.08 785.952 16 512 16zM512 946.976C272.688 946.976 78 751.312 78 512 78 272.688 272.688 78 512 78S946 272.688 946 512C946 751.312 751.312 946.976 512 946.976zM543.008 499.424 543.008 202c0-17.12-13.872-31.008-31.008-31.008s-31.008 13.872-31.008 31.008L480.992 512c0 8.768 3.664 16.64 9.52 22.288 0.528 0.608 0.944 1.28 1.52 1.856l153.44 153.44c12.112 12.112 31.744 12.112 43.84 0s12.112-31.728 0-43.84L543.008 499.424z" fill="#363636" class="color000 svgShape"></path></svg></g></svg>