<svg id="SvgjsSvg1001" width="288" height="288" xmlns="http://www.w3.org/2000/svg" version="1.1" xmlns:xlink="http://www.w3.org/1999/xlink" xmlns:svgjs="http://svgjs.com/svgjs"><defs id="SvgjsDefs1002"></defs><g id="SvgjsG1008" transform="matrix(1,0,0,1,0,0)"><svg xmlns="http://www.w3.org/2000/svg" xmlns:svgjs="http://svgjs.com/svgjs" xmlns:xlink="http://www.w3.org/1999/xlink" viewBox="0 0 288 288" width="288" height="288"><svg xmlns="http://www.w3.org/2000/svg" class="svg-icon" style="width:1em;height:1em;vertical-align:middle" fill="currentColor" overflow="hidden" viewBox="0 0 1024 1024" width="288" height="288"><path fill="#363636" d="M844.8 409.6h-665.6v100.7616a25.6 25.6 0 0 1-51.2 0V256A76.8 76.8 0 0 1 204.8 179.2h51.2v51.2H204.8a25.6 25.6 0 0 0-25.6 25.6v102.4h665.6V256a25.6 25.6 0 0 0-25.6-25.6h-51.2v-51.2h51.2A76.8 76.8 0 0 1 896 256v563.2a76.8 76.8 0 0 1-76.8 76.8H204.8A76.8 76.8 0 0 1 128 819.2v-181.6576a25.6 25.6 0 0 1 51.2 0V819.2a25.6 25.6 0 0 0 25.6 25.6h614.4a25.6 25.6 0 0 0 25.6-25.6V409.6zM614.4 179.2v51.2H409.6v-51.2h204.8zM332.8 512h51.2a25.6 25.6 0 0 1 0 51.2h-51.2a25.6 25.6 0 0 1 0-51.2z m307.2 0h51.2a25.6 25.6 0 0 1 0 51.2h-51.2a25.6 25.6 0 0 1 0-51.2z m-153.6 0h51.2a25.6 25.6 0 0 1 0 51.2h-51.2a25.6 25.6 0 0 1 0-51.2z m-153.6 153.6h51.2a25.6 25.6 0 0 1 0 51.2h-51.2a25.6 25.6 0 0 1 0-51.2z m307.2 0h51.2a25.6 25.6 0 0 1 0 51.2h-51.2a25.6 25.6 0 0 1 0-51.2z m-153.6 0h51.2a25.6 25.6 0 0 1 0 51.2h-51.2a25.6 25.6 0 0 1 0-51.2z m-153.6-563.2a25.6 25.6 0 0 1 25.6 25.6v153.6a25.6 25.6 0 0 1-51.2 0v-153.6a25.6 25.6 0 0 1 25.6-25.6z m358.4 0a25.6 25.6 0 0 1 25.6 25.6v153.6a25.6 25.6 0 0 1-51.2 0v-153.6a25.6 25.6 0 0 1 25.6-25.6z" class="color9DA7B2 svgShape color363636"></path></svg></svg></g></svg>