<svg xmlns="http://www.w3.org/2000/svg" width="32" height="32"><path d="M17.582 10.004c-1.496 0-2.697 1.258-2.697 2.78v6.077c0 1.522 1.201 2.78 2.697 2.78h11.723c1.495 0 2.697-1.258 2.697-2.78v-6.078c0-1.521-1.202-2.78-2.697-2.78H17.582zm0 1h11.723c.246 0 .478.056.69.152l-6.552 4.076-6.55-4.076a1.65 1.65 0 0 1 .689-.152zm-1.451.855 7.049 4.387a.5.5 0 0 0 .527 0l7.049-4.387c.153.268.246.582.246.924v6.078c0 1.004-.758 1.78-1.697 1.78H17.582c-.94 0-1.697-.776-1.697-1.78v-6.078c0-.342.092-.656.246-.924zm-13.2 1.57v1.1h1.465v-1.1H2.932zm2.93 0v1.1h7.327v-1.1H5.86zM.002 15.798v1.1h1.465v-1.1H.002zm2.93 0v1.1h5.861v-1.1H2.932zm8.79 0v1.1h1.466v-1.1h-1.465zm-7.326 2.191v1.1h1.465v-1.1H4.396zm2.93 0v1.1h4.397v-1.1H7.326z" color="#000" font-family="sans-serif" font-weight="400" overflow="visible" style="line-height:normal;text-indent:0;text-align:start;text-decoration-line:none;text-decoration-style:solid;text-decoration-color:#000;text-transform:none;block-progression:tb;white-space:normal;isolation:auto;mix-blend-mode:normal;solid-color:#000;solid-opacity:1"/></svg>